#N canvas 362 67 813 639 10;
#X msg 43 -193 listen 3000;
#X obj 43 -170 netreceive -u -b;
#X obj 88 -138 oscparse;
#X obj 87 -117 list trim;
#X obj 88 -96 route fromProcessing;
#X obj 88 271 bng 15 250 50 0 empty empty empty 17 7 0 10 -262144 -1
-1;
#X obj 154 368 dac~;
#X obj 88 -68 sel 1;
#X obj 88 -47 t b b;
#X obj 310 123 tgl 15 0 empty empty empty 17 7 0 10 -262144 -1 -1 1
1;
#X floatatom 361 123 5 0 0 0 - - -, f 5;
#X obj 87 291 NewMessageSound;
#X obj 280 297 cyclone/click~;
#X obj 287 244 bng 15 250 50 0 empty empty empty 17 7 0 10 -262144
-1 -1;
#X msg 322 248 set \$1;
#X floatatom 373 227 5 0 0 0 - - -, f 5;
#X obj 302 174 t b b;
#X obj 320 204 random 255;
#X obj 443 123 tgl 15 0 empty empty empty 17 7 0 10 -262144 -1 -1 1
1;
#X floatatom 494 123 5 0 0 0 - - -, f 5;
#X obj 413 297 cyclone/click~;
#X obj 420 244 bng 15 250 50 0 empty empty empty 17 7 0 10 -262144
-1 -1;
#X msg 455 248 set \$1;
#X floatatom 506 227 5 0 0 0 - - -, f 5;
#X obj 435 174 t b b;
#X obj 453 204 random 255;
#X obj 372 80 random 10;
#X obj 271 69 delay 2000;
#X obj 434 54 delay 2000;
#X obj 505 80 random 21;
#X obj 311 143 metro 80;
#X obj 374 100 + 80;
#X obj 444 143 metro 80;
#X obj 507 100 + 80;
#X msg 311 99 0;
#X msg 438 98 0;
#X connect 0 0 1 0;
#X connect 1 0 2 0;
#X connect 2 0 3 0;
#X connect 3 0 4 0;
#X connect 4 0 7 0;
#X connect 5 0 11 0;
#X connect 7 0 8 0;
#X connect 8 0 5 0;
#X connect 8 1 9 0;
#X connect 8 1 18 0;
#X connect 8 1 27 0;
#X connect 8 1 28 0;
#X connect 9 0 30 0;
#X connect 10 0 30 1;
#X connect 11 0 6 0;
#X connect 11 0 6 1;
#X connect 12 0 6 0;
#X connect 13 0 12 0;
#X connect 14 0 12 0;
#X connect 16 0 13 0;
#X connect 16 1 17 0;
#X connect 17 0 14 0;
#X connect 17 0 15 0;
#X connect 18 0 32 0;
#X connect 19 0 32 1;
#X connect 20 0 6 1;
#X connect 21 0 20 0;
#X connect 22 0 20 0;
#X connect 24 0 21 0;
#X connect 24 1 25 0;
#X connect 25 0 22 0;
#X connect 25 0 23 0;
#X connect 26 0 31 0;
#X connect 27 0 34 0;
#X connect 28 0 35 0;
#X connect 29 0 33 0;
#X connect 30 0 16 0;
#X connect 30 0 26 0;
#X connect 31 0 10 0;
#X connect 32 0 24 0;
#X connect 32 0 29 0;
#X connect 33 0 19 0;
#X connect 34 0 9 0;
#X connect 35 0 18 0;
