#N canvas 86 178 975 515 10;
#X obj 313 329 *~;
#X obj 338 306 line~;
#X obj 316 457 outlet~;
#X obj 491 273 noise~;
#X obj 560 297 line~;
#X obj 543 328 *~;
#X msg 332 256 0.3 1;
#X obj 597 224 delay 500;
#X obj 15 439 freeverb~;
#X msg 14 416 wet 0.8;
#X msg -69 384 freeze \$1;
#X obj -69 365 tgl 15 0 empty empty empty 0 -6 0 8 -262144 -1 -1 0
1;
#X obj 15 394 loadbang;
#X obj 162 23 inlet;
#X obj 165 52 t b b;
#X obj -79 314 delay 100;
#X obj -64 340 delay 800;
#X msg 346 280 0 600;
#X msg 30 243 open SonarPing.wav;
#X msg 71 269 1;
#X msg 575 270 0 400;
#X obj 491 298 bp~ 300 2;
#X floatatom 500 250 5 0 0 0 - - -, f 5;
#X obj 102 16 bng 15 250 50 0 empty empty empty 17 7 0 10 -262144 -1
-1;
#X obj 67 299 readsf~ 2;
#X obj 258 276 osc~ 175;
#X obj 91 352 *~;
#X obj 106 331 tgl 15 0 empty empty empty 17 7 0 10 -262144 -1 -1 1
1;
#X obj 313 376 *~;
#X obj 328 355 tgl 15 0 empty empty empty 17 7 0 10 -262144 -1 -1 1
1;
#X obj 553 366 *~;
#X obj 568 345 tgl 15 0 empty empty empty 17 7 0 10 -262144 -1 -1 1
1;
#X obj 380 256 delay 800;
#X obj 212 258 osc~ 340;
#X msg 561 246 1 0.6;
#X connect 0 0 28 0;
#X connect 1 0 0 1;
#X connect 3 0 21 0;
#X connect 4 0 5 1;
#X connect 5 0 30 0;
#X connect 6 0 1 0;
#X connect 7 0 20 0;
#X connect 8 0 2 0;
#X connect 9 0 8 0;
#X connect 10 0 8 0;
#X connect 11 0 10 0;
#X connect 12 0 9 0;
#X connect 13 0 14 0;
#X connect 14 0 15 0;
#X connect 14 0 16 0;
#X connect 14 0 19 0;
#X connect 14 1 7 0;
#X connect 14 1 34 0;
#X connect 14 1 6 0;
#X connect 14 1 18 0;
#X connect 14 1 32 0;
#X connect 15 0 11 0;
#X connect 16 0 11 0;
#X connect 17 0 1 0;
#X connect 18 0 24 0;
#X connect 19 0 24 0;
#X connect 20 0 4 0;
#X connect 21 0 5 0;
#X connect 22 0 21 1;
#X connect 23 0 14 0;
#X connect 24 0 26 0;
#X connect 24 1 26 0;
#X connect 25 0 0 0;
#X connect 26 0 2 0;
#X connect 26 0 8 0;
#X connect 27 0 26 1;
#X connect 28 0 2 0;
#X connect 28 0 8 0;
#X connect 29 0 28 1;
#X connect 30 0 2 0;
#X connect 30 0 8 0;
#X connect 31 0 30 1;
#X connect 32 0 17 0;
#X connect 33 0 0 0;
#X connect 34 0 4 0;
